<svg width="306" height="287" viewBox="0 0 306 287" fill="none" xmlns="http://www.w3.org/2000/svg">
<path d="M194.469 148.207H171.953V143.26C171.953 133 163.607 124.654 153.347 124.654C143.087 124.654 134.741 133 134.741 143.26V148.207H112.224C110.133 148.207 108.433 149.906 108.433 151.998V170.781C106.469 169.252 104.005 168.329 101.32 168.329H79.9022L74.829 155.498C74.0709 153.577 73.5149 151.903 72.9779 149.906C70.634 141.207 62.7178 135.135 53.7276 135.135C42.7346 135.135 33.7949 144.075 33.7949 155.068V204.827C33.7949 205.914 34.2561 206.893 34.9953 207.588L41.1614 213.381C40.1948 219.522 38.5585 225.461 37.5982 227.116L6.24923 250.044C0.487387 254.258 -0.769856 262.37 3.44412 268.132C5.97756 271.594 9.91356 273.426 13.9064 273.426C16.5599 273.426 19.2323 272.617 21.532 270.93L53.3358 247.662C57.0886 244.996 59.5589 238.375 61.0625 232.682L69.4526 275.675C70.1096 279.061 72.0555 281.987 74.9301 283.92C77.0971 285.379 79.5927 286.137 82.1451 286.137C82.9727 286.137 83.8066 286.055 84.6343 285.897C91.5017 284.558 96 277.949 94.8818 270.855L87.2688 222.492C86.7697 219.314 85.5883 216.673 83.5539 214.178C79.3715 209.047 75.5998 206.141 71.6069 203.071C69.5473 201.485 67.4309 199.855 65.1691 197.827V191.478C65.4029 191.522 65.6366 191.553 65.8704 191.553H65.883H101.313C103.992 191.553 106.456 190.631 108.427 189.102V203.102C108.427 205.194 110.127 206.893 112.218 206.893H194.469C196.561 206.893 198.26 205.194 198.26 203.102V152.004C198.26 149.9 196.561 148.207 194.469 148.207ZM48.945 241.483C48.926 241.496 48.9071 241.508 48.8881 241.527L17.059 264.815C15.9092 265.655 14.494 265.996 13.0725 265.775C11.651 265.554 10.4063 264.802 9.56608 263.652C8.72581 262.502 8.38465 261.087 8.60577 259.666C8.82689 258.244 9.57871 257 10.7286 256.159L42.5577 232.872C42.7914 232.701 42.9999 232.505 43.1894 232.291C45.2048 229.953 46.7464 224.235 47.7256 219.535L54.7953 226.175C53.1147 234.635 50.6002 240.321 48.945 241.483ZM101.326 183.966H68.4923L59.9822 161.677C59.2367 159.724 57.0444 158.745 55.0859 159.484C53.1274 160.23 52.1481 162.422 52.8936 164.381L57.5877 176.688V199.489C57.5877 200.537 58.0237 201.536 58.7818 202.25C61.7638 205.048 64.4173 207.095 66.976 209.066C70.7667 211.992 74.0456 214.512 77.6784 218.966C78.8598 220.413 79.4853 221.816 79.7759 223.667L87.3888 272.03C87.869 275.081 86.0179 277.899 83.1749 278.455C81.7786 278.727 80.3508 278.436 79.1567 277.634C77.9627 276.831 77.154 275.618 76.8823 274.222L68.1132 229.277C67.9616 228.5 67.5699 227.786 66.9886 227.243L41.3636 203.178V155.062C41.3636 148.251 46.9043 142.71 53.7149 142.71C59.2872 142.71 64.1898 146.476 65.6429 151.871C66.2621 154.158 66.8939 156.079 67.7657 158.284L73.7866 173.516C74.3741 175.007 75.802 175.911 77.3119 175.911H101.301C103.525 175.911 105.331 177.717 105.331 179.941C105.331 182.165 103.55 183.966 101.326 183.966ZM190.679 199.305H116.021V155.788H138.538C140.629 155.788 142.328 154.089 142.328 151.998V143.26C142.328 137.182 147.275 132.236 153.353 132.236C159.431 132.236 164.378 137.182 164.378 143.26V151.998C164.378 154.089 166.077 155.788 168.168 155.788H190.685V199.305H190.679ZM53.6581 131.143C65.5671 131.143 75.2523 121.457 75.2523 109.548C75.2523 97.6392 65.5671 87.954 53.6581 87.954C41.749 87.954 32.0638 97.6392 32.0638 109.548C32.0638 121.457 41.749 131.143 53.6581 131.143ZM53.6581 95.5291C61.3847 95.5291 67.671 101.815 67.671 109.542C67.671 117.269 61.3847 123.555 53.6581 123.555C45.9314 123.555 39.6452 117.269 39.6452 109.542C39.6452 101.815 45.9314 95.5291 53.6581 95.5291ZM300.179 163.01L268.836 140.082C267.857 138.389 266.227 132.469 265.26 126.341L271.427 120.548C272.166 119.859 272.627 118.88 272.627 117.787V68.0277C272.627 57.0347 263.687 48.095 252.694 48.095C243.704 48.095 235.788 54.1727 233.444 62.866C232.907 64.8688 232.351 66.543 231.593 68.4636L226.52 81.2951H205.102C202.544 81.2951 200.181 82.1353 198.26 83.5442V69.4934C198.26 67.4022 196.561 65.7027 194.469 65.7027H171.953V59.6755C171.953 49.4154 163.607 41.0696 153.347 41.0696C143.087 41.0696 134.741 49.4154 134.741 59.6755V65.7027H112.224C110.133 65.7027 108.433 67.4022 108.433 69.4934V120.592C108.433 122.683 110.133 124.383 112.224 124.383H138.531C140.623 124.383 142.322 122.683 142.322 120.592V111.854C142.322 105.777 147.269 100.83 153.347 100.83C159.424 100.83 164.371 105.777 164.371 111.854V120.592C164.371 122.683 166.071 124.383 168.162 124.383H194.469C196.561 124.383 198.26 122.683 198.26 120.592V102.258C200.181 103.666 202.544 104.507 205.102 104.507H240.532H240.545C240.785 104.507 241.019 104.475 241.246 104.431V110.78C238.985 112.802 236.868 114.438 234.809 116.024C230.816 119.101 227.044 122.007 222.862 127.131C220.827 129.626 219.646 132.267 219.147 135.445L211.534 183.808C210.415 190.909 214.92 197.517 221.781 198.851C222.609 199.015 223.443 199.091 224.27 199.091C226.817 199.091 229.312 198.332 231.485 196.873C234.36 194.94 236.306 192.008 236.963 188.628L245.353 145.636C246.857 151.334 249.327 157.949 253.086 160.615L284.89 183.884C287.19 185.564 289.862 186.379 292.515 186.379C296.508 186.379 300.444 184.541 302.978 181.085C307.198 175.336 305.941 167.224 300.179 163.01ZM190.679 116.807H171.953V111.861C171.953 101.601 163.607 93.2547 153.347 93.2547C143.087 93.2547 134.741 101.601 134.741 111.861V116.807H116.015V73.2904H138.531C140.623 73.2904 142.322 71.5909 142.322 69.4997V59.6819C142.322 53.6041 147.269 48.6573 153.347 48.6573C159.424 48.6573 164.371 53.6041 164.371 59.6819V69.4997C164.371 71.5909 166.071 73.2904 168.162 73.2904H190.679V116.807ZM238.302 142.243L229.533 187.188C228.965 190.088 226.147 191.989 223.241 191.427C220.398 190.871 218.547 188.047 219.027 185.002L226.64 136.639C226.93 134.794 227.556 133.385 228.737 131.939C232.37 127.491 235.643 124.964 239.44 122.039C241.998 120.067 244.652 118.027 247.634 115.222C248.398 114.508 248.828 113.503 248.828 112.461V89.6599L253.522 77.3528C254.267 75.3942 253.288 73.2083 251.33 72.4565C249.377 71.711 247.185 72.6902 246.433 74.6487L237.923 96.938H205.09C202.866 96.938 201.059 95.1311 201.059 92.9072C201.059 90.6833 202.866 88.8764 205.09 88.8764H229.078C230.588 88.8764 232.016 87.973 232.604 86.482L238.625 71.2498C239.496 69.0512 240.128 67.1305 240.747 64.8372C242.2 59.4418 247.109 55.6764 252.682 55.6764C259.492 55.6764 265.033 61.2171 265.033 68.0277V116.144L239.408 140.209C238.846 140.752 238.454 141.466 238.302 142.243ZM296.868 176.618C296.028 177.768 294.783 178.52 293.362 178.741C291.94 178.962 290.525 178.621 289.375 177.781L257.546 154.493C257.527 154.481 257.508 154.468 257.489 154.449C255.834 153.286 253.32 147.6 251.645 139.135L258.715 132.495C259.694 137.195 261.23 142.913 263.251 145.25C263.441 145.471 263.649 145.667 263.883 145.838L295.712 169.125C298.094 170.875 298.612 174.236 296.868 176.618ZM252.77 44.1085C264.679 44.1085 274.364 34.4233 274.364 22.5142C274.364 10.6051 264.679 0.919922 252.77 0.919922C240.861 0.919922 231.176 10.6051 231.176 22.5142C231.176 34.4233 240.861 44.1085 252.77 44.1085ZM252.77 8.49497C260.497 8.49497 266.783 14.7812 266.783 22.5079C266.783 30.2345 260.497 36.5208 252.77 36.5208C245.043 36.5208 238.757 30.2345 238.757 22.5079C238.757 14.7812 245.043 8.49497 252.77 8.49497Z" fill="url(#paint0_linear_1_288)"/>
<defs>
<linearGradient id="paint0_linear_1_288" x1="153.214" y1="0.913604" x2="153.214" y2="286.139" gradientUnits="userSpaceOnUse">
<stop offset="1" stop-color="#1F3C8D"/>
</linearGradient>
</defs>
</svg>
