<svg width="97" height="105" viewBox="0 0 97 105" fill="none" xmlns="http://www.w3.org/2000/svg">
<path d="M94.277 68.8418C93.6234 69.8481 92.559 70.4249 91.3597 70.4249H83.3713V84.0861C83.3713 87.9247 80.2486 91.0454 76.4121 91.0454H68.2141C67.3924 91.0454 66.7264 91.7135 66.7264 92.5331V101.727C66.7264 102.414 66.1682 102.972 65.4814 102.972C64.7947 102.972 64.2365 102.414 64.2365 101.727V92.5351C64.2365 90.342 66.0209 88.5575 68.2141 88.5575H76.4121C78.877 88.5575 80.8814 86.5532 80.8814 84.0882V69.182C80.8814 68.4952 81.4396 67.9371 82.1264 67.9371H91.3597C91.7166 67.9371 91.9967 67.7856 92.1917 67.4868C92.3868 67.1881 92.4117 66.8706 92.2664 66.5448L81.9832 43.3536C81.9272 43.227 81.8919 43.0942 81.8815 42.9573C80.5972 28.2171 73.5362 16.635 62.0018 10.348C50.8865 4.28722 36.6153 3.80584 26.4939 9.14873C19.738 12.7155 4.08492 23.3266 4.65759 44.7998C4.90036 53.9211 9.33443 62.9843 13.6233 71.7466C18.2814 81.2663 23.0973 91.1097 22.5039 101.061C22.4624 101.748 21.8731 102.264 21.1863 102.229C20.4995 102.188 19.9766 101.598 20.0181 100.912C20.5742 91.616 16.1111 82.4947 11.3865 72.8401C6.98149 63.8371 2.42707 54.529 2.1677 44.8641C1.92079 35.5685 4.5165 27.2025 9.88636 19.9963C14.862 13.3214 21.0307 9.21513 25.3299 6.94518C36.1588 1.23088 51.3741 1.71848 63.1928 8.16107C68.986 11.3191 73.7313 15.6909 77.3001 21.1562C81.2341 27.1818 83.6037 34.3713 84.3444 42.534L94.5447 65.5385C95.0281 66.6299 94.9306 67.8354 94.277 68.8418ZM60.8087 49.7526C60.5307 50.5037 60.2112 51.2362 59.8543 51.9416L61.2113 54.0788C61.8524 55.0872 61.6968 56.3695 60.8337 57.1953L55.053 62.7353C54.1919 63.5632 52.9034 63.6628 51.924 62.9801L49.8491 61.536C49.2972 61.785 48.739 62.0112 48.1767 62.2083L47.6767 64.6878C47.6684 64.7272 47.658 64.7646 47.6476 64.8019H48.8345C49.5213 64.8019 50.0794 65.3601 50.0794 66.0469V72.5683C50.0794 76.8509 46.5956 80.3347 42.313 80.3347H40.1717C35.8891 80.3347 32.4053 76.8509 32.4053 72.5683V66.3083L22.6719 44.0404C22.6553 44.003 22.6408 43.9678 22.6304 43.9283C22.0225 42.0713 21.7009 40.0068 21.7009 37.9588C21.7009 27.1838 30.4674 18.4173 41.2424 18.4173H45.2449C46.44 18.4173 47.438 19.2349 47.6746 20.4072L48.1726 22.8846C48.9258 23.1523 49.6644 23.4614 50.3761 23.808L52.4925 22.4219C53.4906 21.7662 54.7749 21.9032 55.6132 22.7539L61.2341 28.4557C62.0724 29.3065 62.1927 30.5929 61.5225 31.5826L60.1074 33.6783C60.4477 34.4024 60.7444 35.1452 60.9976 35.8943L63.4709 36.4275C64.639 36.6786 65.442 37.6891 65.4254 38.8842L65.3134 46.8892C65.2968 48.0844 64.4647 49.07 63.2903 49.2899L60.8087 49.7526ZM47.5916 71.3213V67.2897H34.8994V71.3213H47.5916ZM42.4915 49.1218C45.5893 48.5367 47.9402 45.8103 47.9402 42.5464C47.9402 39.2826 45.5893 36.5562 42.4915 35.9711V49.1218ZM42.4915 56.2367C49.4922 55.6059 54.9969 49.707 54.9969 42.5444C54.9969 35.3818 49.4922 29.4849 42.4915 28.8521V33.4459C46.9691 34.0559 50.4301 37.9007 50.4301 42.5423C50.4301 47.1839 46.967 51.0308 42.4915 51.6387V56.2367ZM34.4699 64.8019H40.0016V20.955C31.1791 21.5961 24.1949 28.9724 24.1949 37.9568C24.1949 39.7246 24.4667 41.5007 24.9834 43.0963L34.4699 64.8019ZM47.4422 73.8112H35.0488C35.609 76.1205 37.6943 77.8427 40.1759 77.8427H42.3172C44.7967 77.8427 46.882 76.1226 47.4422 73.8112ZM60.344 47.3063L62.8276 46.8436L62.9397 38.8573L60.4705 38.324C59.6074 38.1373 58.9247 37.5272 58.6446 36.6911C58.4205 36.0229 58.1549 35.3631 57.8562 34.7303C57.4806 33.9314 57.5511 33.0185 58.045 32.2881L59.458 30.1945L53.8516 24.5072L51.7373 25.8912C50.9986 26.3746 50.0856 26.4327 49.2909 26.0447C48.6581 25.7355 48.0024 25.4596 47.3405 25.2272C46.5085 24.9346 45.9088 24.2437 45.7345 23.3784L45.2366 20.9031H42.4873V26.3559C50.8616 26.995 57.4827 34.0082 57.4827 42.5444C57.4827 51.0805 50.8616 58.0937 42.4873 58.7328V64.1857H45.2345L45.7325 61.7103C45.9068 60.8451 46.5064 60.1541 47.3385 59.8616C47.8385 59.6852 48.3365 59.4839 48.8199 59.264C49.6229 58.8988 50.5359 58.9818 51.26 59.486L53.3329 60.9301L59.099 55.4047L57.7441 53.2716C57.271 52.5268 57.2275 51.6117 57.6258 50.8253C57.9433 50.1987 58.2276 49.5451 58.4703 48.8874C58.7774 48.0574 59.4787 47.4681 60.344 47.3063ZM35.1027 27.3955C35.6546 26.9846 35.7667 26.2045 35.3559 25.6525C34.945 25.1006 34.1649 24.9886 33.6129 25.3994C29.2183 28.6778 26.5956 33.9024 26.5956 39.3781C26.5956 40.0649 27.1537 40.623 27.8405 40.623C28.5273 40.623 29.0855 40.0649 29.0855 39.3781C29.0855 34.6141 31.2787 30.2464 35.1027 27.3955Z" fill="url(#paint0_linear_34_220)"/>
<defs>
<linearGradient id="paint0_linear_34_220" x1="48.4983" y1="2.96799" x2="48.4983" y2="102.972" gradientUnits="userSpaceOnUse">
<stop stop-color="#A03A8D"/>
<stop offset="1" stop-color="#1F3C8D"/>
</linearGradient>
</defs>
</svg>
