<svg width="66" height="66" viewBox="0 0 66 66" fill="none" xmlns="http://www.w3.org/2000/svg">
<path fill-rule="evenodd" clip-rule="evenodd" d="M19.6183 46.2512H30.4517V40.8345H19.6183C17.3614 40.8345 15.443 40.0446 13.8631 38.4647C12.2833 36.8849 11.4933 34.9665 11.4933 32.7095C11.4933 30.4526 12.2833 28.5342 13.8631 26.9543C15.443 25.3744 17.3614 24.5845 19.6183 24.5845H30.4517V19.1678H19.6183C15.8718 19.1678 12.6782 20.4882 10.0376 23.1288C7.39697 25.7694 6.07666 28.963 6.07666 32.7095C6.07666 36.456 7.39697 39.6496 10.0376 42.2902C12.6782 44.9309 15.8718 46.2512 19.6183 46.2512ZM35.8683 40.8345V46.2512H46.7017C50.4482 46.2512 53.6418 44.9309 56.2824 42.2902C58.923 39.6496 60.2433 36.456 60.2433 32.7095C60.2433 28.963 58.923 25.7694 56.2824 23.1288C53.6418 20.4882 50.4482 19.1678 46.7017 19.1678H35.8683V24.5845H46.7017C48.9586 24.5845 50.877 25.3744 52.4569 26.9543C54.0367 28.5342 54.8267 30.4526 54.8267 32.7095C54.8267 34.9665 54.0367 36.8849 52.4569 38.4647C50.877 40.0446 48.9586 40.8345 46.7017 40.8345H35.8683Z" fill="#2D3C8C"/>
</svg>
