<svg width="105" height="105" viewBox="0 0 105 105" fill="none" xmlns="http://www.w3.org/2000/svg">
<path d="M98.9805 27.4114C98.2324 25.6985 96.8652 24.384 95.1367 23.7063C91.5527 22.304 87.4961 24.0793 86.0938 27.6633L82.9922 35.5891V7.61841C82.9922 6.97192 82.4668 6.44653 81.8203 6.44653H13.6816C13.0352 6.44653 12.5098 6.97192 12.5098 7.61841V12.6418H6.60156C5.95508 12.6418 5.42969 13.1672 5.42969 13.8137V98.3235C5.42969 98.97 5.95508 99.4954 6.60156 99.4954H74.7402C75.3867 99.4954 75.9121 98.97 75.9121 98.3235V93.3H81.8203C82.4668 93.3 82.9922 92.7747 82.9922 92.1282V73.8958L99.0918 32.7493C99.7695 31.0208 99.7305 29.1243 98.9805 27.4114ZM94.2812 25.8899C96.6621 26.8215 97.8398 29.5149 96.9082 31.8958L96.459 33.0442L87.8262 29.6653L88.2754 28.5168C89.207 26.1379 91.9023 24.9583 94.2812 25.8899ZM71.9473 71.6711L79.6152 74.6711L71.7734 83.4133L71.9473 71.6711ZM80.9531 72.677L72.3203 69.2981L84.6758 37.718L93.3086 41.0969L80.9531 72.677ZM85.5293 35.5383L86.9727 31.8489L95.6055 35.2278L94.1621 38.9172L85.5293 35.5383ZM73.5684 97.1536H7.77344V14.9856H12.5098V92.1301C12.5098 92.7766 13.0352 93.302 13.6816 93.302H73.5703V97.1536H73.5684ZM14.8535 90.9583V8.79028H80.6504V41.5774L69.7109 69.5344C69.6602 69.6653 69.6328 69.804 69.6309 69.9446L69.3867 86.5071C69.3789 86.9954 69.6758 87.4368 70.1309 87.6165C70.2695 87.6711 70.4141 87.6965 70.5586 87.6965C70.8848 87.6965 71.2051 87.5598 71.4316 87.3079L80.6523 77.0286V90.9563H14.8535V90.9583ZM23.127 29.0735L28.3008 31.6282C28.4668 31.7102 28.6445 31.7493 28.8184 31.7493C29.166 31.7493 29.502 31.5911 29.7266 31.3157L30.5391 31.8137L30.2188 32.4504C29.4355 34.0051 30.0625 35.9094 31.6172 36.6926C31.9336 36.8528 32.2676 36.9524 32.6094 36.9993C32.5645 37.4368 32.6094 37.8821 32.75 38.3137C33.0137 39.1165 33.5742 39.7668 34.3262 40.1458C34.7715 40.3704 35.2539 40.4836 35.7402 40.4836C36.0742 40.4836 36.4082 40.4309 36.7363 40.3235C36.8789 40.2766 37.0156 40.2161 37.1484 40.1516C37.4414 40.5579 37.8262 40.8918 38.2852 41.1223C38.7402 41.3508 39.2246 41.4602 39.7031 41.4602C40.207 41.4602 40.7012 41.3391 41.1465 41.1125C41.4316 41.4993 41.8066 41.8293 42.2637 42.0598C42.709 42.2844 43.1914 42.3977 43.6777 42.3977C44.0117 42.3977 44.3457 42.345 44.6738 42.2375C45.252 42.0461 45.752 41.7004 46.127 41.2415L47.1016 41.843C47.6055 42.1536 48.1719 42.3137 48.752 42.3137C48.9961 42.3137 49.2441 42.2844 49.4883 42.2278C50.3105 42.0325 51.0078 41.5325 51.4492 40.8157C51.5488 40.6555 51.627 40.4856 51.6953 40.3137C51.9023 40.3547 52.1113 40.3762 52.3184 40.3762C53.3789 40.3762 54.4141 39.843 55.0117 38.8782C55.1797 38.6067 55.3008 38.3176 55.377 38.0247C55.6719 38.1145 55.9785 38.1633 56.2891 38.1633C56.5332 38.1633 56.7813 38.134 57.0254 38.0774C57.8477 37.8821 58.5449 37.3821 58.9863 36.6653C59.1387 36.4192 59.25 36.1575 59.3301 35.8879C59.7383 36.0735 60.1777 36.1692 60.625 36.1692C60.8691 36.1692 61.1172 36.1399 61.3613 36.0833C62.1836 35.8879 62.8809 35.3879 63.3223 34.6711C64.1172 33.384 63.873 31.7454 62.8242 30.7375C63.4297 29.5989 64.2734 28.7883 65.3789 28.2903L65.6074 28.7688C65.7422 29.05 65.9824 29.2668 66.2773 29.3704C66.4023 29.4153 66.5352 29.4368 66.666 29.4368C66.8418 29.4368 67.0156 29.3977 67.1758 29.3196L72.3711 26.8098C72.9512 26.5286 73.1973 25.8333 72.918 25.2512L66.1934 11.1458C66.0586 10.8645 65.8184 10.6477 65.5234 10.5442C65.2305 10.4407 64.9062 10.4583 64.625 10.595L59.4297 13.1047C58.8496 13.386 58.6035 14.0813 58.8828 14.6633L59.1289 15.179C57.8066 15.1204 56.0547 14.804 54.3418 14.4954C51.5586 13.9934 48.4043 13.425 45.7715 13.6418C42.6543 13.8977 40.6719 15.2317 39.8613 17.6028C38.875 17.7356 37.7148 17.6008 36.8633 17.1379L36.8672 17.1282C37.0059 16.8489 37.0293 16.5266 36.9297 16.2317C36.8301 15.9368 36.6172 15.6926 36.3379 15.554L31.1641 12.9993C30.5859 12.7141 29.8848 12.9485 29.5977 13.5247L22.6035 27.4973C22.4648 27.7766 22.4414 28.0989 22.541 28.3958C22.6348 28.6926 22.8477 28.9368 23.127 29.0735ZM32.3105 33.5071L33.1172 31.9075C33.3203 31.5051 33.8105 31.345 34.2109 31.5461C34.6113 31.7493 34.7734 32.2395 34.5723 32.6399L33.7656 34.2395C33.5625 34.6399 33.0723 34.802 32.6719 34.6008C32.2695 34.3997 32.1074 33.9075 32.3105 33.5071ZM36 38.0989C35.791 38.1672 35.5703 38.1516 35.3789 38.054C35.1875 37.9563 35.043 37.7883 34.9746 37.5813C34.9062 37.3723 34.9219 37.1516 35.0195 36.9602L35.8574 35.2981V35.2961L37.5039 32.0325C37.6016 31.8411 37.7695 31.6965 37.9766 31.6282C38.0625 31.6008 38.1504 31.5872 38.2363 31.5872C38.3613 31.5872 38.4844 31.6165 38.5977 31.6731C38.998 31.8762 39.1602 32.3665 38.959 32.7668L38.5508 33.5774C38.5508 33.5774 38.5508 33.5793 38.5488 33.5793L36.8828 36.8821V36.884L36.4746 37.6946C36.377 37.886 36.209 38.0305 36 38.0989ZM39.3379 39.0305C39.1465 38.9329 39.002 38.7649 38.9336 38.5579C38.8652 38.3508 38.8809 38.1301 38.9766 37.9368L40.6426 34.634C40.8457 34.2317 41.3359 34.0715 41.7363 34.2727C41.9297 34.3704 42.0723 34.5383 42.1406 34.7454C42.209 34.9524 42.1934 35.1751 42.0957 35.3665L40.8594 37.8176L40.4297 38.6692C40.2285 39.0715 39.7383 39.2336 39.3379 39.0305ZM44.4082 39.6086C44.3105 39.8 44.1426 39.9446 43.9355 40.0129C43.7266 40.0813 43.5059 40.0657 43.3145 39.968C42.9141 39.7668 42.752 39.2747 42.9531 38.8743L43.7598 37.2747C43.8574 37.0833 44.0254 36.9387 44.2324 36.8704C44.4414 36.802 44.6621 36.8176 44.8535 36.9153C45.0449 37.0129 45.1895 37.1809 45.2578 37.3879C45.3262 37.5969 45.3105 37.8157 45.2129 38.009L44.4082 39.6086ZM64.5801 13.2161L70.2969 25.2063L67.2129 26.6965L61.4961 14.7063L64.5801 13.2161ZM53.9219 16.802C56.3867 17.2454 58.5742 17.6379 60.2324 17.5012L64.3672 26.1711C62.8613 26.8586 61.6836 27.9602 60.8457 29.4641L54.9824 25.9778C55.8145 25.5872 56.5176 24.9329 57.0352 24.0227C57.3555 23.4602 57.1582 22.7454 56.5957 22.425C56.0332 22.1047 55.3184 22.302 54.998 22.8645C54.0215 24.5813 52.2012 24.0657 51.2031 23.6047C51.0801 23.5481 50.9512 23.5149 50.8223 23.5032L45.4277 20.2961L45.4258 20.2942C44.8672 19.9641 44.1504 20.1497 43.8203 20.7083C42.1133 23.5989 40.7617 24.2043 39.1699 23.7395L40.9805 20.9875C41.4512 20.2727 41.7539 19.5793 41.9609 18.7415C42.8555 15.1106 47.6914 15.6809 53.9219 16.802ZM38.8262 19.9954L36.4395 23.6243C36.2578 23.9016 36.2012 24.2415 36.2832 24.5618C36.3652 24.8821 36.5801 25.1516 36.873 25.3059C38.0176 25.9075 39.084 26.2083 40.0879 26.2083C41.9941 26.2083 43.6699 25.1145 45.2051 22.8918L61.0645 32.3235C61.4355 32.5579 61.5547 33.0676 61.3223 33.4407C61.209 33.6243 61.0293 33.7532 60.8164 33.804C60.6016 33.8547 60.3848 33.8196 60.2012 33.7063L57.9551 32.3196L56.459 31.3958C55.9082 31.0559 55.1856 31.2258 54.8457 31.7766C54.5059 32.3274 54.6758 33.0501 55.2266 33.3899L55.9688 33.8469L56.7246 34.3137C56.9082 34.427 57.0352 34.6067 57.0859 34.8196C57.1367 35.0325 57.1016 35.2512 56.9883 35.4348C56.875 35.6184 56.6953 35.7473 56.4824 35.7981C56.2676 35.8489 56.0508 35.8137 55.8672 35.7004L53.041 33.9543C52.4902 33.6145 51.7676 33.7844 51.4277 34.3352C51.0879 34.886 51.2578 35.6086 51.8086 35.9485L52.748 36.5286C53.1289 36.7649 53.248 37.2668 53.0117 37.6497C52.7754 38.0325 52.2734 38.1516 51.8906 37.9153L49.623 36.5149C49.0723 36.1751 48.3496 36.345 48.0098 36.8958C47.6699 37.4465 47.8398 38.1692 48.3906 38.509L49.5645 39.2336C49.5547 39.3586 49.5156 39.4797 49.4492 39.5872C49.3359 39.7708 49.1562 39.8997 48.9434 39.9504C48.7305 40.0012 48.5117 39.9661 48.3281 39.8528L47.2461 39.1848L47.3066 39.0657C47.6855 38.3137 47.748 37.4583 47.4844 36.6555C47.2207 35.8528 46.6602 35.2024 45.9082 34.8235C45.457 34.5969 44.9707 34.4856 44.4785 34.4876C44.4512 34.3293 44.416 34.1711 44.3652 34.0149C44.1016 33.2122 43.541 32.5618 42.7891 32.1829C42.3223 31.9465 41.8242 31.8411 41.334 31.8469C41.1641 30.9016 40.5723 30.0442 39.6504 29.5793C38.8984 29.2004 38.043 29.1379 37.2402 29.4016C36.8086 29.5442 36.4238 29.7727 36.0977 30.0696C35.8613 29.8254 35.582 29.6145 35.2617 29.4543C34.1035 28.8704 32.7539 29.0696 31.8145 29.8528L30.7988 29.2297L35.8008 19.2395C36.7363 19.7317 37.8008 19.9622 38.8262 19.9954ZM31.166 15.6165L34.2383 17.134L28.293 29.011L25.2207 27.4934L31.166 15.6165ZM65.0938 48.7024C65.7402 48.7024 66.2656 49.2278 66.2656 49.8743C66.2656 50.5208 65.7402 51.0461 65.0938 51.0461H30.4062C29.7598 51.0461 29.2344 50.5208 29.2344 49.8743C29.2344 49.2278 29.7598 48.7024 30.4062 48.7024H65.0938ZM68.7871 59.8411H22.9629C22.3164 59.8411 21.791 59.3157 21.791 58.6692C21.791 58.0227 22.3164 57.4973 22.9629 57.4973H68.7871C69.4336 57.4973 69.959 58.0227 69.959 58.6692C69.959 59.3157 69.4336 59.8411 68.7871 59.8411ZM66.9316 66.4036C66.9316 67.05 66.4063 67.5754 65.7598 67.5754H22.9629C22.3164 67.5754 21.791 67.05 21.791 66.4036C21.791 65.7571 22.3164 65.2317 22.9629 65.2317H65.7617C66.4082 65.2317 66.9316 65.7571 66.9316 66.4036ZM65.8809 74.1379C65.8809 74.7844 65.3555 75.3098 64.709 75.3098H22.9629C22.3164 75.3098 21.791 74.7844 21.791 74.1379C21.791 73.4915 22.3164 72.9661 22.9629 72.9661H64.709C65.3555 72.9661 65.8809 73.4915 65.8809 74.1379ZM65.7656 81.8723C65.7656 82.5188 65.2402 83.0442 64.5938 83.0442H22.9629C22.3164 83.0442 21.791 82.5188 21.791 81.8723C21.791 81.2258 22.3164 80.7004 22.9629 80.7004H64.5957C65.2402 80.7004 65.7656 81.2258 65.7656 81.8723Z" fill="url(#paint0_linear_34_86)"/>
<defs>
<linearGradient id="paint0_linear_34_86" x1="52.5014" y1="6.44751" x2="52.5014" y2="99.4963" gradientUnits="userSpaceOnUse">
<stop stop-color="#A03A8D"/>
<stop offset="1" stop-color="#1F3C8D"/>
</linearGradient>
</defs>
</svg>
