<svg width="97" height="105" viewBox="0 0 97 105" fill="none" xmlns="http://www.w3.org/2000/svg">
<path d="M39.5546 33.1462H52.9947C53.6756 33.1462 54.229 32.5881 54.229 31.9014V23.8931C54.229 20.2333 51.785 17.14 48.4564 16.1815C51.102 15.2645 53.007 12.7333 53.007 9.76031C53.007 6.01757 49.987 2.97192 46.2757 2.97192C42.5644 2.97192 39.5443 6.01757 39.5443 9.76031C39.5443 12.7333 41.4514 15.2665 44.095 16.1815C40.7663 17.14 38.3223 20.2333 38.3223 23.8931V31.9014C38.3203 32.5902 38.8737 33.1462 39.5546 33.1462ZM42.011 9.75823C42.011 7.38686 43.9242 5.45948 46.2736 5.45948C48.6251 5.45948 50.5362 7.38894 50.5362 9.75823C50.5362 12.1296 48.623 14.057 46.2736 14.057C43.9222 14.0591 42.011 12.1296 42.011 9.75823ZM40.789 23.8931C40.789 20.8433 43.2495 18.362 46.2736 18.362C49.2978 18.362 51.7583 20.8433 51.7583 23.8931V30.6566H40.7869V23.8931H40.789ZM15.7254 64.7686C8.31521 64.7686 2.2854 70.8495 2.2854 78.3225C2.2854 85.7956 8.31521 91.8765 15.7254 91.8765C23.1357 91.8765 29.1655 85.7956 29.1655 78.3225C29.1634 70.8495 23.1357 64.7686 15.7254 64.7686ZM15.7254 89.3848C9.67712 89.3848 4.75411 84.4221 4.75411 78.3205C4.75411 72.2209 9.67506 67.2562 15.7254 67.2562C21.7758 67.2562 26.6968 72.2188 26.6968 78.3205C26.6947 84.4221 21.7738 89.3848 15.7254 89.3848ZM79.0601 69.1047C73.9169 69.1047 69.7325 73.3246 69.7325 78.5113C69.7325 79.4968 69.8868 80.4927 70.1769 81.3889C70.1892 81.4284 70.2036 81.4657 70.2201 81.503L74.5033 91.2956L74.4683 93.9512C74.4683 96.2416 76.3157 98.1047 78.5869 98.1047H79.5332C81.8045 98.1047 83.6519 96.2416 83.6519 93.9429L83.6334 91.3039L87.9001 81.503C87.9165 81.4657 87.931 81.4284 87.9433 81.391C88.2354 80.4947 88.3877 79.4989 88.3877 78.5134C88.3897 73.3246 84.2053 69.1047 79.0601 69.1047ZM79.5353 95.6171H78.589C77.6797 95.6171 76.939 94.8703 76.939 93.9698L76.9617 92.2914L81.1749 92.2956L81.1873 93.9533C81.1852 94.8703 80.4446 95.6171 79.5353 95.6171ZM85.6165 80.5611L81.5926 89.8059L76.5482 89.7997L72.5077 80.5591C72.3082 79.9242 72.2032 79.2167 72.2032 78.5113C72.2032 74.696 75.2809 71.5943 79.0621 71.5943C82.8454 71.5943 85.921 74.6981 85.921 78.5113C85.921 79.2188 85.8161 79.9242 85.6165 80.5611ZM26.9539 59.4823C26.9539 70.225 35.6212 78.9657 46.2736 78.9657C56.9261 78.9657 65.5933 70.225 65.5933 59.4823C65.5933 48.7396 56.9261 39.9989 46.2736 39.9989C35.6212 39.9989 26.9539 48.7396 26.9539 59.4823ZM63.1266 59.4823C63.1266 68.8537 55.5662 76.4761 46.2757 76.4761C36.9831 76.4761 29.4247 68.8516 29.4247 59.4823C29.4247 50.113 36.9851 42.4885 46.2757 42.4885C55.5662 42.4885 63.1266 50.113 63.1266 59.4823ZM71.9708 63.9325L74.0445 67.5549C74.386 68.1503 74.1823 68.9118 73.5919 69.2562C73.3985 69.3703 73.1846 69.4221 72.9768 69.4221C72.5509 69.4221 72.1354 69.1981 71.907 68.7997L69.8333 65.1773C69.4918 64.5819 69.6955 63.8205 70.2859 63.4761C70.8743 63.1317 71.6293 63.3371 71.9708 63.9325ZM79.165 61.0757C79.846 61.0757 80.3994 61.6338 80.3994 62.3205V66.503C80.3994 67.1898 79.846 67.7479 79.165 67.7479C78.4841 67.7479 77.9306 67.1898 77.9306 66.503V62.3205C77.9306 61.6338 78.4841 61.0757 79.165 61.0757ZM88.4988 65.1773L86.425 68.7997C86.1967 69.1981 85.7811 69.4221 85.3553 69.4221C85.1454 69.4221 84.9335 69.3682 84.7402 69.2562C84.1497 68.9118 83.9481 68.1503 84.2876 67.5549L86.3613 63.9325C86.7028 63.3371 87.4578 63.1337 88.0482 63.4761C88.6366 63.8205 88.8382 64.5819 88.4988 65.1773ZM94.0966 71.7333L90.5046 73.8246C90.3112 73.9387 90.0973 73.9927 89.8895 73.9927C89.4636 73.9927 89.048 73.7686 88.8197 73.3703C88.4782 72.7748 88.6819 72.0134 89.2723 71.669L92.8643 69.5777C93.4547 69.2333 94.2097 69.4387 94.5512 70.0342C94.8886 70.6275 94.687 71.3889 94.0966 71.7333ZM80.3109 74.057C80.4323 74.7333 79.9858 75.3806 79.3131 75.503C78.0664 75.7292 77.0954 76.3827 76.577 77.3433C76.0709 78.2831 76.0524 79.4325 76.5297 80.5757C76.793 81.2105 76.4988 81.9387 75.8693 82.2043C75.7129 82.2707 75.5504 82.3018 75.392 82.3018C74.9106 82.3018 74.4518 82.0155 74.2543 81.5383C73.4829 79.6835 73.5384 77.7707 74.4086 76.1545C75.2788 74.5404 76.9082 73.4097 78.879 73.0528C79.5476 72.9304 80.1895 73.3806 80.3109 74.057ZM68.9034 88.4532C69.3066 89.0072 69.1894 89.7873 68.638 90.1939C65.4184 92.5777 61.8409 94.4284 58.0103 95.6918C54.1776 96.9553 50.2133 97.584 46.2613 97.584C41.7065 97.584 37.1661 96.7479 32.8541 95.0923L35.6458 101.206C35.9318 101.831 35.6602 102.569 35.041 102.858C34.8744 102.935 34.6974 102.972 34.5246 102.972C34.0576 102.972 33.6112 102.704 33.4034 102.248L29.2663 93.1898C29.1285 92.8869 29.1161 92.5404 29.2334 92.2292C29.3506 91.918 29.5872 91.6649 29.8896 91.53L38.923 87.5093C39.5464 87.2313 40.2747 87.5176 40.5503 88.1462C40.826 88.7748 40.5442 89.5093 39.9188 89.7873L33.459 92.6628C41.0605 95.6545 49.4377 95.8993 57.2408 93.3288C60.8225 92.1483 64.1656 90.4201 67.1753 88.1918C67.7287 87.779 68.5002 87.8993 68.9034 88.4532ZM13.4872 75.252C13.4872 75.8993 14.164 76.2686 15.709 76.9533C15.8839 77.03 16.0587 77.1089 16.2336 77.1877C16.4023 77.2645 16.571 77.3391 16.7376 77.4138C18.3834 78.1441 20.4324 79.0549 20.4324 81.3931C20.4324 83.3806 18.9574 85.0591 16.9598 85.557V87.5964C16.9598 88.2831 16.4064 88.8412 15.7254 88.8412C15.0445 88.8412 14.4911 88.2831 14.4911 87.5964V85.557C12.4935 85.0591 11.0184 83.3806 11.0184 81.3931C11.0184 80.7064 11.5718 80.1483 12.2528 80.1483C12.9337 80.1483 13.4872 80.7064 13.4872 81.3931C13.4872 82.3993 14.4911 83.2188 15.7254 83.2188C16.9598 83.2188 17.9637 82.3993 17.9637 81.3931C17.9637 80.7458 17.2869 80.3765 15.7419 79.6918C15.567 79.6151 15.3922 79.5362 15.2173 79.4574C15.0486 79.3806 14.882 79.3059 14.7153 79.2333C13.0695 78.503 11.0205 77.5923 11.0205 75.2541C11.0205 73.2665 12.4956 71.5881 14.4931 71.0902V69.0508C14.4931 68.364 15.0465 67.8059 15.7275 67.8059C16.4085 67.8059 16.9619 68.364 16.9619 69.0508V71.0902C18.9594 71.5881 20.4345 73.2665 20.4345 75.2541C20.4345 75.9408 19.8811 76.4989 19.2001 76.4989C18.5192 76.4989 17.9658 75.9408 17.9658 75.2541C17.9658 74.2479 16.9619 73.4284 15.7275 73.4284C14.4931 73.4284 13.4872 74.2437 13.4872 75.252ZM57.5494 24.4035C57.7819 23.7562 58.4875 23.4221 59.1294 23.6545C64.7292 25.6939 69.6543 28.9574 73.7647 33.3578C79.1177 39.0881 82.5019 46.1275 83.6313 53.8329L88.1429 48.4263C88.5811 47.8993 89.3607 47.8329 89.8812 48.2748C90.4038 48.7167 90.4696 49.503 90.0314 50.0279L83.6642 57.6607C83.4503 57.9159 83.1458 58.0736 82.8166 58.1006C82.7837 58.1026 82.7528 58.1047 82.7199 58.1047C82.4237 58.1047 82.1357 57.9968 81.9094 57.7997L74.4559 51.2686C73.9416 50.8184 73.8861 50.0321 74.3346 49.5134C74.781 48.9947 75.5607 48.9387 76.075 49.391L81.1317 53.8205C80.0208 46.7707 76.8835 40.3288 71.9687 35.0694C68.1258 30.9553 63.5237 27.9055 58.2921 25.9989C57.6502 25.7645 57.319 25.0508 57.5494 24.4035ZM8.50654 60.4615C8.35224 54.5466 9.53722 48.806 12.0306 43.4035C15.6905 35.474 21.9034 29.1026 29.6448 25.279L23.3085 23.1607C22.6604 22.945 22.3107 22.2396 22.5247 21.5881C22.7386 20.9346 23.4381 20.5819 24.0841 20.7976L33.4713 23.9346C33.7861 24.0404 34.0453 24.2665 34.1914 24.5674C34.3374 24.8661 34.358 25.2126 34.249 25.5279L30.9923 34.9304C30.8154 35.4429 30.3381 35.7645 29.8279 35.7645C29.6921 35.7645 29.5564 35.7416 29.4206 35.6939C28.7767 35.4678 28.4372 34.7582 28.6615 34.1089L30.9903 27.3869C23.6335 30.945 17.7313 36.9553 14.2669 44.4553C11.936 49.5051 10.8271 54.8682 10.9711 60.3952C10.9896 61.0819 10.4506 61.6545 9.76969 61.6732C9.75941 61.6732 9.74706 61.6732 9.73678 61.6732C9.07228 61.6752 8.523 61.1379 8.50654 60.4615ZM69.5124 73.3682C69.284 73.7665 68.8684 73.9906 68.4426 73.9906C68.2327 73.9906 68.0209 73.9367 67.8275 73.8246L64.2355 71.7333C63.6451 71.3889 63.4435 70.6275 63.7829 70.0321C64.1244 69.4367 64.8794 69.2333 65.4699 69.5757L69.0618 71.6669C69.6523 72.0113 69.8539 72.7728 69.5124 73.3682ZM42.5376 46.3412L41.7806 50.1441C41.3383 50.362 40.9104 50.6109 40.503 50.8889L36.8576 49.6483C36.3 49.4574 35.687 49.6918 35.3928 50.2043L32.8665 54.6172C32.5723 55.1317 32.6793 55.7831 33.1195 56.1732L36.0079 58.7375C35.9894 58.9864 35.9812 59.2354 35.9812 59.4802C35.9812 59.725 35.9894 59.9761 36.0079 60.223L33.1195 62.7873C32.6772 63.1794 32.5723 63.8308 32.8665 64.3433L35.3928 68.7562C35.687 69.2707 36.3 69.503 36.8576 69.3122L40.503 68.0715C40.9104 68.3516 41.3383 68.6006 41.7806 68.8163L42.5376 72.6192C42.6528 73.2001 43.1589 73.6192 43.7473 73.6192H48.7999C49.3883 73.6192 49.8944 73.2001 50.0096 72.6192L50.7667 68.8163C51.209 68.5985 51.6369 68.3495 52.0442 68.0715L55.6897 69.3122C56.2472 69.503 56.8603 69.2686 57.1544 68.7562L59.6807 64.3433C59.9749 63.8288 59.868 63.1773 59.4277 62.7873L56.5393 60.223C56.5578 59.974 56.5661 59.725 56.5661 59.4802C56.5661 59.2354 56.5578 58.9844 56.5393 58.7375L59.4277 56.1732C59.87 55.7811 59.9749 55.1296 59.6807 54.6172L57.1544 50.2043C56.8603 49.6898 56.2472 49.4574 55.6897 49.6483L52.0442 50.8889C51.6369 50.6089 51.209 50.3599 50.7667 50.1441L50.0096 46.3412C49.8944 45.7603 49.3883 45.3412 48.7999 45.3412H43.7473C43.1589 45.3412 42.6528 45.7603 42.5376 46.3412ZM44.7595 47.8308H47.7898L48.4728 51.2645C48.5551 51.6752 48.8349 52.0155 49.2175 52.1732C49.8841 52.447 50.5095 52.8101 51.0773 53.2582C51.4044 53.5155 51.8385 53.5902 52.2314 53.4553L55.523 52.335L57.0392 54.9823L54.4306 57.2956C54.12 57.5715 53.9677 57.9865 54.0233 58.3993C54.0727 58.7603 54.0974 59.1234 54.0974 59.4844C54.0974 59.8433 54.0727 60.2084 54.0233 60.5694C53.9677 60.9823 54.12 61.3972 54.4306 61.6732L57.0392 63.9865L55.523 66.6337L52.2314 65.5134C51.8385 65.3786 51.4044 65.4532 51.0773 65.7105C50.5095 66.1566 49.8841 66.5217 49.2175 66.7956C48.8328 66.9533 48.5531 67.2935 48.4728 67.7043L47.7898 71.1379H44.7595L44.0765 67.7043C43.9942 67.2935 43.7144 66.9533 43.3317 66.7956C42.6652 66.5217 42.0398 66.1586 41.472 65.7105C41.1449 65.4532 40.7108 65.3786 40.3179 65.5134L37.0263 66.6337L35.5101 63.9865L38.1187 61.6732C38.4293 61.3972 38.5815 60.9823 38.526 60.5694C38.4766 60.2084 38.4519 59.8454 38.4519 59.4844C38.4519 59.1254 38.4766 58.7603 38.526 58.3993C38.5815 57.9865 38.4293 57.5715 38.1187 57.2956L35.5101 54.9823L37.0263 52.335L40.3179 53.4553C40.7108 53.5902 41.1449 53.5155 41.472 53.2582C42.0398 52.8122 42.6652 52.447 43.3317 52.1732C43.7164 52.0155 43.9962 51.6752 44.0765 51.2645L44.7595 47.8308ZM41.1716 59.4823C41.1716 62.3184 43.4613 64.6275 46.2736 64.6275C49.0859 64.6275 51.3756 62.3184 51.3756 59.4823C51.3756 56.6462 49.0879 54.3371 46.2736 54.3371C43.4593 54.3371 41.1716 56.6462 41.1716 59.4823ZM46.2736 56.8267C47.726 56.8267 48.9069 58.0176 48.9069 59.4823C48.9069 60.947 47.726 62.1379 46.2736 62.1379C44.8212 62.1379 43.6403 60.947 43.6403 59.4823C43.6403 58.0176 44.8232 56.8267 46.2736 56.8267Z" fill="url(#paint0_linear_34_229)"/>
<defs>
<linearGradient id="paint0_linear_34_229" x1="48.4996" y1="2.96985" x2="48.4996" y2="102.97" gradientUnits="userSpaceOnUse">
<stop stop-color="#A03A8D"/>
<stop offset="1" stop-color="#1F3C8D"/>
</linearGradient>
</defs>
</svg>
