<svg width="26" height="25" viewBox="0 0 26 25" fill="none" xmlns="http://www.w3.org/2000/svg">
<path d="M21.2292 7.8877C21.2292 10.0968 19.4384 11.8877 17.2292 11.8877C15.0201 11.8877 13.2292 10.0968 13.2292 7.8877C13.2292 5.67856 15.0201 3.8877 17.2292 3.8877C19.4384 3.8877 21.2292 5.67856 21.2292 7.8877Z" stroke="#90386B" stroke-width="2" stroke-linecap="round" stroke-linejoin="round"/>
<path d="M17.2292 14.8877C13.3633 14.8877 10.2292 18.0217 10.2292 21.8877H24.2292C24.2292 18.0217 21.0952 14.8877 17.2292 14.8877Z" stroke="#90386B" stroke-width="2" stroke-linecap="round" stroke-linejoin="round"/>
<mask id="path-2-inside-1_6_6398" fill="white">
<path fill-rule="evenodd" clip-rule="evenodd" d="M2.46368 15.0968C1.71788 14.5812 1.22925 13.7201 1.22925 12.7448C1.22925 11.1669 2.50843 9.8877 4.08639 9.8877C5.16212 9.8877 6.09899 10.4822 6.58639 11.3606C7.07379 10.4822 8.01067 9.8877 9.08639 9.8877C10.6643 9.8877 11.9435 11.1669 11.9435 12.7448C11.9435 13.72 11.455 14.581 10.7094 15.0966L6.58681 19.8877L2.46368 15.0968Z"/>
</mask>
<path d="M2.46368 15.0968L3.9796 13.7922L3.81213 13.5976L3.60093 13.4516L2.46368 15.0968ZM6.58639 11.3606L4.83759 12.331L6.58639 15.4825L8.33519 12.331L6.58639 11.3606ZM10.7094 15.0966L9.57194 13.4515L9.36081 13.5975L9.19339 13.7921L10.7094 15.0966ZM6.58681 19.8877L5.07089 21.1923L6.58694 22.9539L8.10283 21.1922L6.58681 19.8877ZM3.60093 13.4516C3.37227 13.2935 3.22925 13.0357 3.22925 12.7448H-0.770752C-0.770752 14.4045 0.0634929 15.8689 1.32643 16.742L3.60093 13.4516ZM3.22925 12.7448C3.22925 12.2715 3.613 11.8877 4.08639 11.8877V7.8877C1.40387 7.8877 -0.770752 10.0623 -0.770752 12.7448H3.22925ZM4.08639 11.8877C4.40646 11.8877 4.6885 12.0623 4.83759 12.331L8.33519 10.3901C7.50948 8.90209 5.91777 7.8877 4.08639 7.8877V11.8877ZM8.33519 12.331C8.48428 12.0623 8.76633 11.8877 9.08639 11.8877V7.8877C7.25501 7.8877 5.66331 8.90209 4.83759 10.3901L8.33519 12.331ZM9.08639 11.8877C9.55978 11.8877 9.94353 12.2715 9.94353 12.7448H13.9435C13.9435 10.0623 11.7689 7.8877 9.08639 7.8877V11.8877ZM9.94353 12.7448C9.94353 13.0356 9.80055 13.2934 9.57194 13.4515L11.8469 16.7416C13.1095 15.8685 13.9435 14.4043 13.9435 12.7448H9.94353ZM8.10283 21.1922L12.2254 16.401L9.19339 13.7921L5.07078 18.5832L8.10283 21.1922ZM0.947772 16.4014L5.07089 21.1923L8.10272 18.5831L3.9796 13.7922L0.947772 16.4014Z" fill="#90386B" mask="url(#path-2-inside-1_6_6398)"/>
</svg>
